<svg width="218" height="29.999999999999996" xmlns="http://www.w3.org/2000/svg" class="iconLeft">
 <!---->

 <defs>
  <!---->
 </defs>
 <defs>
  <!---->
 </defs>
 <!---->
 <g>
  <title>background</title>
  <rect fill="none" id="canvas_background" height="32" width="220" y="-1" x="-1"/>
 </g>
 <g>
  <title>Layer 1</title>
  <g transform="matrix(1.5224272599491953,0,0,1.5224272599491953,81.11479595778849,142.33457870622857) " fill="#000000" id="cbca5819-3167-4d41-9ece-af8295d4a68c">
   <path id="svg_2" d="m-22.58165,-78.53613l4.52,0l-3.18,-5.66l2.84,-4.35l-4.41,0l-1.77,3.43l0,-3.43l-3.76,0l0,10.01l3.76,0l0,-3.15l0.3,-0.35l1.7,3.5zm9.21,0.14c2.84,0 3.72,-1.43 3.92,-2.74l-3.28,-0.16c-0.02,0.56 -0.23,0.88 -0.67,0.88c-0.43,0 -0.64,-0.39 -0.64,-1.17l0,-0.18l4.65,0c0,0 0.02,-0.37 0.02,-0.83c0,-2.24 -1.42,-3.78 -4.04,-3.78c-2.21,0 -4.09,1.09 -4.09,3.98c0,1.97 0.92,4 4.13,4zm-0.67,-5.01c0,-0.9 0.28,-1.09 0.63,-1.09c0.36,0 0.64,0.15 0.64,1.12l0,0.12l-1.27,0l0,-0.15zm5.08,-0.48l1.18,0l0,2.84c0,1.1 0.6,2.51 2.66,2.51c0.86,0 1.61,0 2.21,-0.06l0,-2.75l-1.04,0c-0.35,0 -0.53,-0.16 -0.53,-0.55l0,-1.99l1.57,0l0,-2.34l-1.57,0l0,-2.32l-3.22,0l-0.04,2.32l-1.22,0l0,2.34zm11.66,1.4c0,1.28 -0.12,1.82 -0.66,1.82c-0.54,0 -0.7,-0.54 -0.7,-1.83c0,-1.25 0.2,-1.61 0.68,-1.61c0.44,0 0.68,0.36 0.68,1.62zm3.5,0.06c0,-2.48 -1.34,-3.95 -4.18,-3.95c-2.79,0 -4.15,1.5 -4.15,3.95c0,2.35 1.25,4.03 4.17,4.03c2.94,0 4.16,-1.65 4.16,-4.03zm13.19,0.77c0,-2.23 -1.4,-2.7 -3.67,-3.35c-1.43,-0.4 -1.78,-0.54 -1.78,-0.95c0,-0.24 0.26,-0.39 0.61,-0.39c0.57,0 0.81,0.35 0.86,0.82l3.53,-0.25c-0.26,-1.66 -1.48,-2.91 -4.31,-2.91c-2.91,0 -4.28,1.18 -4.28,3.09c0,1.99 1.14,2.93 3.71,3.52c1.09,0.25 1.41,0.46 1.41,0.8c0,0.33 -0.28,0.46 -0.71,0.46c-0.84,0 -1.11,-0.45 -1.19,-1.01l-3.48,0.21c0.06,1.32 0.98,3.22 4.54,3.22c2.97,0 4.76,-0.99 4.76,-3.26zm0.24,-2.23l1.17,0l0,2.84c0,1.1 0.61,2.51 2.66,2.51c0.87,0 1.61,0 2.22,-0.06l0,-2.75l-1.04,0c-0.35,0 -0.53,-0.16 -0.53,-0.55l0,-1.99l1.57,0l0,-2.34l-1.57,0l0,-2.32l-3.22,0l-0.04,2.32l-1.22,0l0,2.34zm15.41,3.31l-0.47,0c-0.31,0 -0.4,-0.2 -0.4,-0.44l0,-2.31c0,-1.99 -1.09,-3.05 -3.71,-3.05c-2.75,0 -3.68,1.29 -3.76,2.65l3.02,0.21c0.06,-0.69 0.28,-0.84 0.62,-0.84c0.33,0 0.54,0.12 0.54,0.74l0,0.46l-0.75,0c-2.45,0 -3.81,0.73 -3.81,2.48c0,1.03 0.57,2.28 2.55,2.28c1.17,0 2.01,-0.46 2.29,-1.43c0.16,1.05 0.94,1.43 2.17,1.43c0.65,0 1.17,-0.03 1.71,-0.07l0,-2.11zm-4.14,-0.73c0,0.54 -0.2,0.85 -0.69,0.85c-0.42,0 -0.63,-0.29 -0.63,-0.64c0,-0.39 0.24,-0.67 0.83,-0.67l0.47,0l0.02,0.46zm10.6,-2.17l0,-2.9l-0.41,0c-1.39,0 -2.11,0.74 -2.28,2.04c-0.06,-0.72 -0.13,-1.42 -0.18,-1.89l-3,0c0.03,0.51 0.06,1.45 0.06,1.94l0,5.75l3.55,0l0,-3.36c0,-1.16 0.73,-1.61 1.84,-1.61c0,0 0.21,0 0.42,0.03zm0.14,-0.41l1.17,0l0,2.84c0,1.1 0.6,2.51 2.66,2.51c0.87,0 1.61,0 2.21,-0.06l0,-2.75l-1.03,0c-0.35,0 -0.53,-0.16 -0.53,-0.55l0,-1.99l1.56,0l0,-2.34l-1.56,0l0,-2.32l-3.22,0l-0.05,2.32l-1.21,0l0,2.34zm11,5.49c2.84,0 3.72,-1.43 3.92,-2.74l-3.28,-0.16c-0.02,0.56 -0.23,0.88 -0.67,0.88c-0.43,0 -0.64,-0.39 -0.64,-1.17l0,-0.18l4.65,0c0,0 0.02,-0.37 0.02,-0.83c0,-2.24 -1.42,-3.78 -4.04,-3.78c-2.21,0 -4.09,1.09 -4.09,3.98c0,1.97 0.92,4 4.13,4zm-0.67,-5.01c0,-0.9 0.28,-1.09 0.63,-1.09c0.36,0 0.64,0.15 0.64,1.12l0,0.12l-1.27,0l0,-0.15zm11.46,-0.07l0,-2.9l-0.4,0c-1.39,0 -2.12,0.74 -2.28,2.04c-0.06,-0.72 -0.13,-1.42 -0.19,-1.89l-2.99,0c0.03,0.51 0.05,1.45 0.05,1.94l0,5.75l3.56,0l0,-3.36c0,-1.16 0.73,-1.61 1.83,-1.61c0,0 0.21,0 0.42,0.03zm9.76,4.94l4.52,0l-3.17,-5.66l2.84,-4.35l-4.41,0l-1.78,3.43l0,-3.43l-3.75,0l0,10.01l3.75,0l0,-3.15l0.31,-0.35l1.69,3.5zm5.25,0l3.47,0l0,-7.69l-3.47,0l0,7.69zm0.02,-8.48l3.47,0l0,-2.59l-3.47,0l0,2.59zm4.01,3.13l1.18,0l0,2.84c0,1.1 0.6,2.51 2.66,2.51c0.87,0 1.61,0 2.21,-0.06l0,-2.75l-1.03,0c-0.35,0 -0.54,-0.16 -0.54,-0.55l0,-1.99l1.57,0l0,-2.34l-1.57,0l0,-2.32l-3.22,0l-0.04,2.32l-1.22,0l0,2.34z"/>
  </g>
  <g transform="matrix(0.29089149473121206,0,0,0.29089149473121206,40,137.20019276842015) " fill="#FFE800" id="c171568e-c4da-482d-8de8-be4a66164e77">
   <circle id="svg_3" r="9.522" cy="-387.50284" cx="-91.51805"/>
   <circle id="svg_4" r="9.522" cy="-387.50284" cx="-41.55805"/>
   <path id="svg_5" d="m-99.56105,-414.80284c0.029,0.1 0.057,0.201 0.089,0.3l-0.089,-0.3zm-9.404,3.249l-0.086,-0.294c0.029,0.099 0.056,0.197 0.086,0.294z"/>
   <path id="svg_6" d="m-32.03605,-454.79584l-79.315,0l-3.301,-11.189l-17.384,0l1.876,6.315l7.018,0l14.091,47.822l0.086,0.294c2.25,7.066 8.872,12.201 16.674,12.201l60.255,0l0,-9.939l-60.255,0c-3.348,0 -6.19,-2.189 -7.181,-5.211c-0.032,-0.099 -0.06,-0.2 -0.089,-0.3l-0.41,-1.394l67.935,-13.285l0,-25.314z"/>
  </g>
 </g>
</svg>